<svg width="60" height="65" viewBox="0 0 60 65" fill="none" xmlns="http://www.w3.org/2000/svg">
    <path fill-rule="evenodd" clip-rule="evenodd" d="m60 1-6.496 44.722H.567L7.092 1H60z" fill="#FFED00"/>
    <path d="M7.092 1H60M6.61 4.222h52.936M6.156 7.472h52.908M5.674 10.694H58.58M5.22 13.917h52.908M4.738 17.167h52.907M4.255 20.556h52.908M3.773 23.778h52.908M3.29 27h52.937M2.837 30.25h52.908M2.355 33.472H55.29M1.9 36.722H54.81M1.418 39.944h52.908M.936 43.167h52.936" stroke="#000" stroke-width=".17" stroke-miterlimit="2.414"/>
    <path fill-rule="evenodd" clip-rule="evenodd" d="m28.113 16.611.398-2.666h14.808l-.369 2.666H28.113z" fill="#000"/>
    <path d="m43.32 13.972-.37 2.611H28.142l.369-2.61h14.808zm.027-.055H28.454l-.397 2.694h14.865l.425-2.694z" fill="#000"/>
    <path fill-rule="evenodd" clip-rule="evenodd" d="m27.66 19.834.368-2.64h14.837l-.397 2.64H27.66z" fill="#000"/>
    <path d="m42.837 17.222-.369 2.611h-14.78l.369-2.61h14.78zm.057-.055H28l-.397 2.694h14.865l.426-2.694z" fill="#000"/>
    <path fill-rule="evenodd" clip-rule="evenodd" d="m27.177 23.084.37-2.5h14.808l-.34 2.5H27.176z" fill="#000"/>
    <path d="m42.326 20.583-.368 2.445h-14.78l.34-2.445h14.808zm.057-.027H27.489l-.368 2.555h14.865l.397-2.555z" fill="#000"/>
    <path fill-rule="evenodd" clip-rule="evenodd" d="m26.695 26.306.369-2.5H41.9l-.37 2.5H26.696z" fill="#000"/>
    <path d="m41.872 23.833-.368 2.445h-14.78l.34-2.445h14.808zm.057-.055H27.035l-.368 2.555h14.865l.397-2.555z" fill="#000"/>
    <path fill-rule="evenodd" clip-rule="evenodd" d="m26.241 29.528.34-2.5H41.42l-.37 2.5H26.242z" fill="#000"/>
    <path d="m41.39 27.056-.369 2.444h-14.78l.34-2.444h14.81zm.057-.056H26.553l-.369 2.556H41.05L41.447 27z" fill="#000"/>
    <path fill-rule="evenodd" clip-rule="evenodd" d="m25.759 32.778.369-2.5h14.837l-.37 2.5H25.76z" fill="#000"/>
    <path d="m40.936 30.306-.369 2.444h-14.78l.34-2.444h14.81zm.057-.056H26.099l-.369 2.556h14.866l.397-2.556z" fill="#000"/>
    <path fill-rule="evenodd" clip-rule="evenodd" d="m25.305 36 .34-2.5h14.837l-.369 2.5H25.305z" fill="#000"/>
    <path d="m40.454 33.528-.369 2.444h-14.78l.34-2.444h14.809zm.057-.056H25.617l-.369 2.556h14.865l.398-2.556z" fill="#000"/>
    <path fill-rule="evenodd" clip-rule="evenodd" d="m24.823 39.25.34-2.528H40l-.369 2.528H24.823z" fill="#000"/>
    <path d="m39.972 36.75-.37 2.444h-14.78l.341-2.444h14.809zm.056-.028H25.135l-.369 2.556h14.865l.397-2.556z" fill="#000"/>
    <path fill-rule="evenodd" clip-rule="evenodd" d="M24.227 43.195h14.837l-.369 2.5-14.808.027.34-2.527z" fill="#000"/>
    <path d="m39.035 43.222-.368 2.445h-14.78l.34-2.473h14.808m.057-.027H24.2l-.37 2.555h14.866l.397-2.555z" fill="#000"/>
    <path fill-rule="evenodd" clip-rule="evenodd" d="m24.34 42.472.37-2.5h14.836l-.369 2.5H24.34z" fill="#000"/>
    <path d="m39.518 40-.37 2.444h-14.78L24.71 40h14.809zm.056-.056H24.681l-.369 2.556h14.894l.368-2.556z" fill="#000"/>
    <path fill-rule="evenodd" clip-rule="evenodd" d="m15.376 3.556.34-2.528h44.256l-.37 2.528H15.377z" fill="#000"/>
    <path d="m59.943 1.056-.368 2.5h-44.17l.34-2.5h44.198zM60 1H15.688l-.34 2.583H59.63L60 1z" fill="#000"/>
    <path fill-rule="evenodd" clip-rule="evenodd" d="m14.894 6.778.34-2.528h44.284l-.37 2.528H14.895z" fill="#000"/>
    <path d="m59.49 4.278-.37 2.5H14.923l.34-2.5H59.49zm.056-.056h-44.34l-.34 2.583h44.283l.397-2.583z" fill="#000"/>
    <path fill-rule="evenodd" clip-rule="evenodd" d="m14.411 10.028.34-2.528h44.284l-.368 2.528H14.41z" fill="#000"/>
    <path d="m59.007 7.5-.369 2.5H14.44l.34-2.5h44.227zm.057-.028H14.752l-.34 2.583h44.283l.369-2.583z" fill="#000"/>
    <path fill-rule="evenodd" clip-rule="evenodd" d="m13.957 13.25.34-2.528h44.256l-.369 2.528H13.957z" fill="#000"/>
    <path d="m58.525 10.75-.369 2.5h-44.17l.34-2.5h44.199zm.057-.056H14.269l-.34 2.584h44.284l.369-2.584zM2.213 48.917H0l.17-1.556h6.61l-.17 1.556H4.397l-.85 7.5H1.361l.85-7.5zM7.603 47.333h5.617l-.17 1.556H9.617l-.227 2.11h3.206l-.17 1.556H9.22l-.255 2.25h3.574l-.17 1.556H6.582l1.02-9.028zM13.56 53.861c.851.695 1.334.945 1.93.945.51 0 .936-.306.964-.75.142-1.334-2.752-2.334-2.497-4.528.142-1.306 1.476-2.306 3.036-2.306.68 0 1.333.167 2.043.556l-.2 1.694c-.907-.5-1.304-.639-1.786-.639-.511 0-.908.25-.965.611-.113 1.084 2.865 2.39 2.61 4.528-.17 1.445-1.503 2.528-3.092 2.528-.738 0-1.419-.222-2.27-.722l.227-1.917zM21.93 48.917h-2.214l.17-1.556h6.61l-.17 1.556h-2.213l-.85 7.5h-2.185l.851-7.5zM27.348 47.333h5.617l-.17 1.556h-3.433l-.256 2.11h3.206l-.17 1.556h-3.206l-.255 2.25h3.546l-.17 1.556h-5.76l1.05-9.028zM34.355 47.333h2.184l-.851 7.445h3.546l-.17 1.639h-5.73l1.02-9.084zM40.851 47.333h5.617l-.17 1.556h-3.433l-.227 2.11h3.206l-.17 1.556h-3.206l-.255 2.25h3.517l-.17 1.556h-5.759l1.05-9.028zM52.539 55.861c-.71.472-1.39.667-2.326.667-2.298 0-3.717-1.778-3.404-4.556.312-2.86 2.07-4.75 4.453-4.75.738 0 1.476.167 2.128.5l-.199 1.75c-.652-.389-1.106-.528-1.588-.528-1.248 0-2.298.917-2.525 2.917-.227 1.917.397 2.972 1.759 2.972.567 0 1.248-.277 1.929-.722l-.227 1.75zM10.553 57.834h1.305l-.624 5.36H9.929l.624-5.36zM12.482 59.556h1.192l-.057.5h.028c.34-.39.71-.584 1.164-.584.737 0 1.191.445 1.078 1.306l-.284 2.389H14.41l.256-2.223c.056-.389-.057-.639-.397-.639-.284 0-.54.195-.738.584l-.255 2.278h-1.192l.397-3.611zM19.376 60.167c.255.277.312.527.284.86a1.223 1.223 0 0 1-.483.834c-.737.611-1.844.222-1.872.639-.057.444 1.56-.028 2.184.611a.89.89 0 0 1 .227.722c-.085.64-.709 1.167-2.042 1.167-1.532 0-1.787-.639-1.76-.972.058-.39.398-.695.965-.806-.368-.11-.51-.305-.482-.583.029-.278.256-.5.71-.611-.454-.306-.653-.667-.596-1.167.085-.75.794-1.361 1.9-1.361h1.816l-.085.667h-.766zm-1.589 4.222c.568 0 .908-.139.936-.417.029-.278-.227-.444-.822-.444-.54 0-.908.166-.936.444-.029.25.227.417.822.417zm.227-2.694c.34 0 .567-.25.624-.778.057-.473-.113-.723-.454-.723-.34 0-.567.25-.624.723-.056.527.114.777.454.777zM23.149 62.889c-.482.25-.936.361-1.447.361-1.447 0-1.674-1.083-1.589-1.806.142-1.138.965-1.944 1.93-1.944.907 0 1.532.639 1.361 2.056h-2.07c-.029.61.283.944.85.944.34 0 .624-.083 1.05-.278l-.085.667zm-1.135-5.111h1.475l-1.702 1.305h-.624l.851-1.305zm.34 3.25c.057-.584-.056-.889-.368-.889s-.54.333-.596.889h.965zM24.227 59.556h1.192l-.057.5h.028c.34-.39.71-.584 1.163-.584.738 0 1.192.445 1.078 1.306l-.283 2.389h-1.192l.255-2.223c.057-.389-.056-.639-.397-.639-.284 0-.539.195-.737.584l-.256 2.278H23.83l.397-3.611zM28.482 59.556h1.192l-.426 3.61h-1.191l.425-3.61zm1.419-1.14c-.029.334-.37.64-.738.64a.574.574 0 0 1-.596-.64c.029-.333.37-.61.738-.61.369-.028.624.25.596.61zM33.078 62.889c-.482.25-.936.361-1.447.361-1.447 0-1.674-1.083-1.588-1.806.141-1.138.964-1.944 1.929-1.944.907 0 1.532.639 1.361 2.056h-2.07c-.029.61.283.944.85.944.313 0 .625-.083 1.05-.278l-.085.667zm-.794-1.861c.056-.584-.057-.89-.37-.89-.311 0-.538.334-.595.89h.965zM34.184 59.556h1.107l-.17 1.36h.028c.369-.944.766-1.416 1.22-1.416.227 0 .454.083.68.222l-.368 1a.917.917 0 0 0-.482-.166c-.624 0-1.05 1.083-1.163 2.055l-.057.556h-1.192l.397-3.611zM37.362 59.556h1.191l-.425 3.61h-1.192l.426-3.61zm1.39-1.14c-.029.334-.369.64-.738.64a.575.575 0 0 1-.596-.64c.029-.333.37-.61.738-.61.369-.028.653.25.596.61zM41.957 62.889c-.482.25-.936.361-1.446.361-1.447 0-1.674-1.083-1.589-1.806.142-1.138.936-1.944 1.93-1.944.907 0 1.531.639 1.36 2.056h-2.07c-.029.61.283.944.85.944.341 0 .625-.083 1.05-.278l-.085.667zm-.794-1.861c.057-.584-.057-.89-.369-.89-.34 0-.539.334-.595.89h.964z" fill="#000"/>
</svg>
