<svg width="60" height="60" viewBox="0 0 60 60" fill="none" xmlns="http://www.w3.org/2000/svg">
    <g opacity=".3">
        <path d="M0 2.727a2.727 2.727 0 1 0 5.455 0 2.727 2.727 0 0 0-5.455 0z" fill="url(#zgo58lsesa)"/>
        <path d="M10.91 2.727a2.727 2.727 0 1 0 5.454 0 2.727 2.727 0 0 0-5.455 0z" fill="url(#5ppjdso1vb)"/>
        <path d="M21.818 2.727a2.727 2.727 0 1 0 5.455 0 2.727 2.727 0 0 0-5.455 0z" fill="url(#z8ukcjz2wc)"/>
        <path d="M32.727 2.727a2.727 2.727 0 1 0 5.455 0 2.727 2.727 0 0 0-5.455 0z" fill="url(#580w8fr36d)"/>
        <path d="M43.636 2.727a2.727 2.727 0 1 0 5.455 0 2.727 2.727 0 0 0-5.455 0z" fill="url(#lniwpj6m5e)"/>
        <path d="M54.545 2.727a2.727 2.727 0 1 0 5.455 0 2.727 2.727 0 0 0-5.455 0z" fill="url(#cv57rtszaf)"/>
        <path d="M0 13.636a2.727 2.727 0 1 0 5.454 0 2.727 2.727 0 0 0-5.454 0z" fill="url(#8hbvb3dnlg)"/>
        <path d="M10.91 13.636a2.727 2.727 0 1 0 5.454 0 2.727 2.727 0 0 0-5.455 0z" fill="url(#ob4ydf7nmh)"/>
        <path d="M21.818 13.636a2.727 2.727 0 1 0 5.455 0 2.727 2.727 0 0 0-5.455 0z" fill="url(#jd967syldi)"/>
        <path d="M32.727 13.636a2.727 2.727 0 1 0 5.455 0 2.727 2.727 0 0 0-5.455 0z" fill="url(#bpn7f77xyj)"/>
        <path d="M43.636 13.636a2.727 2.727 0 1 0 5.455 0 2.727 2.727 0 0 0-5.455 0z" fill="url(#frml1tiqrk)"/>
        <path d="M0 24.546a2.727 2.727 0 1 0 5.454 0 2.727 2.727 0 0 0-5.454 0z" fill="url(#zq6u16y9jl)"/>
        <path d="M10.91 24.546a2.727 2.727 0 1 0 5.454 0 2.727 2.727 0 0 0-5.455 0z" fill="url(#fbbmntrt5m)"/>
        <path d="M21.818 24.546a2.727 2.727 0 1 0 5.455 0 2.727 2.727 0 0 0-5.455 0z" fill="url(#7sft96x3jn)"/>
        <path d="M32.727 24.546a2.727 2.727 0 1 0 5.455 0 2.727 2.727 0 0 0-5.455 0z" fill="url(#1exepfsw1o)"/>
        <path d="M0 35.455a2.727 2.727 0 1 0 5.455 0 2.727 2.727 0 0 0-5.455 0z" fill="url(#km3vp3zihp)"/>
        <path d="M10.91 35.455a2.727 2.727 0 1 0 5.454 0 2.727 2.727 0 0 0-5.455 0z" fill="url(#ozuzk2jwbq)"/>
        <path d="M21.818 35.455a2.727 2.727 0 1 0 5.455 0 2.727 2.727 0 0 0-5.455 0z" fill="url(#kp1iw03qhr)"/>
        <path d="M0 46.364a2.727 2.727 0 1 0 5.455 0 2.727 2.727 0 0 0-5.455 0z" fill="url(#pcsw6qlnps)"/>
        <path d="M10.91 46.364a2.727 2.727 0 1 0 5.454 0 2.727 2.727 0 0 0-5.455 0z" fill="url(#plqzglp3at)"/>
        <path d="M0 57.273a2.727 2.727 0 1 0 5.455 0 2.727 2.727 0 0 0-5.455 0z" fill="url(#w41tt8axru)"/>
    </g>
    <defs>
        <linearGradient id="zgo58lsesa" x1="30" y1="0" x2="30" y2="60" gradientUnits="userSpaceOnUse">
            <stop stop-color="#fff"/>
            <stop offset="1" stop-color="#fff" stop-opacity=".2"/>
        </linearGradient>
        <linearGradient id="5ppjdso1vb" x1="30" y1="0" x2="30" y2="60" gradientUnits="userSpaceOnUse">
            <stop stop-color="#fff"/>
            <stop offset="1" stop-color="#fff" stop-opacity=".2"/>
        </linearGradient>
        <linearGradient id="z8ukcjz2wc" x1="30" y1="0" x2="30" y2="60" gradientUnits="userSpaceOnUse">
            <stop stop-color="#fff"/>
            <stop offset="1" stop-color="#fff" stop-opacity=".2"/>
        </linearGradient>
        <linearGradient id="580w8fr36d" x1="30" y1="0" x2="30" y2="60" gradientUnits="userSpaceOnUse">
            <stop stop-color="#fff"/>
            <stop offset="1" stop-color="#fff" stop-opacity=".2"/>
        </linearGradient>
        <linearGradient id="lniwpj6m5e" x1="30" y1="0" x2="30" y2="60" gradientUnits="userSpaceOnUse">
            <stop stop-color="#fff"/>
            <stop offset="1" stop-color="#fff" stop-opacity=".2"/>
        </linearGradient>
        <linearGradient id="cv57rtszaf" x1="30" y1="0" x2="30" y2="60" gradientUnits="userSpaceOnUse">
            <stop stop-color="#fff"/>
            <stop offset="1" stop-color="#fff" stop-opacity=".2"/>
        </linearGradient>
        <linearGradient id="8hbvb3dnlg" x1="30" y1="0" x2="30" y2="60" gradientUnits="userSpaceOnUse">
            <stop stop-color="#fff"/>
            <stop offset="1" stop-color="#fff" stop-opacity=".2"/>
        </linearGradient>
        <linearGradient id="ob4ydf7nmh" x1="30" y1="0" x2="30" y2="60" gradientUnits="userSpaceOnUse">
            <stop stop-color="#fff"/>
            <stop offset="1" stop-color="#fff" stop-opacity=".2"/>
        </linearGradient>
        <linearGradient id="jd967syldi" x1="30" y1="0" x2="30" y2="60" gradientUnits="userSpaceOnUse">
            <stop stop-color="#fff"/>
            <stop offset="1" stop-color="#fff" stop-opacity=".2"/>
        </linearGradient>
        <linearGradient id="bpn7f77xyj" x1="30" y1="0" x2="30" y2="60" gradientUnits="userSpaceOnUse">
            <stop stop-color="#fff"/>
            <stop offset="1" stop-color="#fff" stop-opacity=".2"/>
        </linearGradient>
        <linearGradient id="frml1tiqrk" x1="30" y1="0" x2="30" y2="60" gradientUnits="userSpaceOnUse">
            <stop stop-color="#fff"/>
            <stop offset="1" stop-color="#fff" stop-opacity=".2"/>
        </linearGradient>
        <linearGradient id="zq6u16y9jl" x1="30" y1="0" x2="30" y2="60" gradientUnits="userSpaceOnUse">
            <stop stop-color="#fff"/>
            <stop offset="1" stop-color="#fff" stop-opacity=".2"/>
        </linearGradient>
        <linearGradient id="fbbmntrt5m" x1="30" y1="0" x2="30" y2="60" gradientUnits="userSpaceOnUse">
            <stop stop-color="#fff"/>
            <stop offset="1" stop-color="#fff" stop-opacity=".2"/>
        </linearGradient>
        <linearGradient id="7sft96x3jn" x1="30" y1="0" x2="30" y2="60" gradientUnits="userSpaceOnUse">
            <stop stop-color="#fff"/>
            <stop offset="1" stop-color="#fff" stop-opacity=".2"/>
        </linearGradient>
        <linearGradient id="1exepfsw1o" x1="30" y1="0" x2="30" y2="60" gradientUnits="userSpaceOnUse">
            <stop stop-color="#fff"/>
            <stop offset="1" stop-color="#fff" stop-opacity=".2"/>
        </linearGradient>
        <linearGradient id="km3vp3zihp" x1="30" y1="0" x2="30" y2="60" gradientUnits="userSpaceOnUse">
            <stop stop-color="#fff"/>
            <stop offset="1" stop-color="#fff" stop-opacity=".2"/>
        </linearGradient>
        <linearGradient id="ozuzk2jwbq" x1="30" y1="0" x2="30" y2="60" gradientUnits="userSpaceOnUse">
            <stop stop-color="#fff"/>
            <stop offset="1" stop-color="#fff" stop-opacity=".2"/>
        </linearGradient>
        <linearGradient id="kp1iw03qhr" x1="30" y1="0" x2="30" y2="60" gradientUnits="userSpaceOnUse">
            <stop stop-color="#fff"/>
            <stop offset="1" stop-color="#fff" stop-opacity=".2"/>
        </linearGradient>
        <linearGradient id="pcsw6qlnps" x1="30" y1="0" x2="30" y2="60" gradientUnits="userSpaceOnUse">
            <stop stop-color="#fff"/>
            <stop offset="1" stop-color="#fff" stop-opacity=".2"/>
        </linearGradient>
        <linearGradient id="plqzglp3at" x1="30" y1="0" x2="30" y2="60" gradientUnits="userSpaceOnUse">
            <stop stop-color="#fff"/>
            <stop offset="1" stop-color="#fff" stop-opacity=".2"/>
        </linearGradient>
        <linearGradient id="w41tt8axru" x1="30" y1="0" x2="30" y2="60" gradientUnits="userSpaceOnUse">
            <stop stop-color="#fff"/>
            <stop offset="1" stop-color="#fff" stop-opacity=".2"/>
        </linearGradient>
    </defs>
</svg>
